{"accessors" : [{"bufferView" : 0, "byteOffset" : 0, "componentType" : 5123, "count" : 2040, "type" : "SCALAR", "max" : [1369], "min" : [0]}, {"bufferView" : 1, "byteOffset" : 0, "componentType" : 5126, "count" : 1370, "type" : "VEC3", "max" : [3.9755499362945557, 2.1888298988342285, 1.9193300008773804], "min" : [-3.8846700191497803, -2.1929399967193604, -4.131529808044434], "name" : "POSITION"}, {"bufferView" : 1, "byteOffset" : 12, "componentType" : 5126, "count" : 1370, "type" : "VEC3", "max" : [0.9919350743293762, 0.9978562593460083, 0.9984143972396851], "min" : [-0.9889078736305237, -0.9995679259300232, -0.9993191957473755], "name" : "NORMAL"}, {"bufferView" : 1, "byteOffset" : 24, "componentType" : 5126, "count" : 1370, "type" : "VEC2", "max" : [0.9591784477233887, 1.9983497858047485], "min" : [0.0016501392237842083, 1.0016502141952515], "name" : "TEXCOORD_0"}], "asset" : {"generator" : "Aspose.3D 24.6.0", "version" : "2.0"}, "buffers" : [{"uri" : "data:application/octet-stream;base64,", "byteLength" : 47928}], "bufferViews" : [{"buffer" : 0, "byteOffset" : 0, "byteLength" : 4080, "target" : 34963}, {"buffer" : 0, "byteOffset" : 4084, "byteLength" : 43840, "byteStride" : 32, "target" : 34962}], "images" : [{"uri" : "data:image/png;base64,"}], "materials" : [{"name" : "Material.004", "pbrMetallicRoughness" : {"baseColorFactor" : [1, 1, 1, 1], "baseColorTexture" : {"index" : 0, "texCoord" : 0}, "metallicFactor" : 0, "roughnessFactor" : 0.5}, "emissiveFactor" : [0, 0, 0], "alphaMode" : "OPAQUE", "doubleSided" : true}], "meshes" : [{"primitives" : [{"attributes" : {"POSITION" : 1, "NORMAL" : 2, "TEXCOORD_0" : 3}, "indices" : 0, "material" : 0, "mode" : 4}]}], "nodes" : [{"matrix" : [1, 0, 0, 0, 0, -1.3435885648505064E-07, 1.0000001343588565, 0, 0, -1.0000001343588565, -1.3435885648505064E-07, 0, 0, 0, 0, 1], "mesh" : 0, "name" : ""}], "samplers" : [{"magFilter" : 9729, "minFilter" : 9987, "wrapS" : 10497, "wrapT" : 10497}], "scene" : 0, "scenes" : [{"nodes" : [0]}], "textures" : [{"sampler" : 0, "source" : 0, "name" : ""}]}