{"accessors" : [{"bufferView" : 0, "byteOffset" : 0, "componentType" : 5123, "count" : 1854, "type" : "SCALAR", "max" : [1241], "min" : [0]}, {"bufferView" : 1, "byteOffset" : 0, "componentType" : 5126, "count" : 1242, "type" : "VEC3", "max" : [4.054880142211914, 1.499519944190979, 2.0536301136016846], "min" : [-4.147719860076904, -1.4977400302886963, -4.632989883422852], "name" : "POSITION"}, {"bufferView" : 1, "byteOffset" : 12, "componentType" : 5126, "count" : 1242, "type" : "VEC3", "max" : [0.9956652522087097, 0.9991214871406555, 0.9919055104255676], "min" : [-0.9929026961326599, -0.9985872507095337, -0.9938376545906067], "name" : "NORMAL"}, {"bufferView" : 1, "byteOffset" : 24, "componentType" : 5126, "count" : 1242, "type" : "VEC2", "max" : [0.9983580112457275, 1.9983580112457275], "min" : [0.0016420000465586782, 1.0161550045013428], "name" : "TEXCOORD_0"}], "asset" : {"generator" : "Aspose.3D 24.9.1", "version" : "2.0"}, "buffers" : [{"uri" : "data:application/octet-stream;base64,", "byteLength" : 43460}], "bufferViews" : [{"buffer" : 0, "byteOffset" : 0, "byteLength" : 3708, "target" : 34963}, {"buffer" : 0, "byteOffset" : 3712, "byteLength" : 39744, "byteStride" : 32, "target" : 34962}], "images" : [{"uri" : "data:image/png;base64,"}], "materials" : [{"name" : "Material.007", "pbrMetallicRoughness" : {"baseColorFactor" : [1, 1, 1, 1], "baseColorTexture" : {"index" : 0, "texCoord" : 0}, "metallicFactor" : 0, "roughnessFactor" : 0.5}, "emissiveFactor" : [0, 0, 0], "alphaMode" : "OPAQUE", "doubleSided" : true}], "meshes" : [{"primitives" : [{"attributes" : {"POSITION" : 1, "NORMAL" : 2, "TEXCOORD_0" : 3}, "indices" : 0, "material" : 0, "mode" : 4}]}], "nodes" : [{"matrix" : [1, 0, 0, 0, 0, -1.3435885648505064E-07, 1.0000001343588565, 0, 0, -1.0000001343588565, -1.3435885648505064E-07, 0, 0, 0, 0, 1], "mesh" : 0, "name" : ""}], "samplers" : [{"magFilter" : 9729, "minFilter" : 9987, "wrapS" : 10497, "wrapT" : 10497}], "scene" : 0, "scenes" : [{"nodes" : [0]}], "textures" : [{"sampler" : 0, "source" : 0, "name" : ""}]}