{"accessors" : [{"bufferView" : 0, "byteOffset" : 0, "componentType" : 5123, "count" : 168, "type" : "SCALAR", "max" : [103], "min" : [0]}, {"bufferView" : 1, "byteOffset" : 0, "componentType" : 5126, "count" : 104, "type" : "VEC3", "max" : [1.133945107460022, 2.7747645378112793, 1], "min" : [-1, -1, -0.8875650763511658], "name" : "POSITION"}, {"bufferView" : 1, "byteOffset" : 12, "componentType" : 5126, "count" : 104, "type" : "VEC3", "max" : [1.0000044107437134, 0.9908729195594788, 0.9999889135360718], "min" : [-1.0000044107437134, -0.9439778327941895, -0.998879611492157], "name" : "NORMAL"}, {"bufferView" : 1, "byteOffset" : 24, "componentType" : 5126, "count" : 104, "type" : "VEC2", "max" : [0.875, 2], "min" : [0.125, 1], "name" : "TEXCOORD_0"}, {"bufferView" : 0, "byteOffset" : 336, "componentType" : 5123, "count" : 180, "type" : "SCALAR", "max" : [113], "min" : [0]}, {"bufferView" : 2, "byteOffset" : 0, "componentType" : 5126, "count" : 114, "type" : "VEC3", "max" : [1.133945107460022, 2.7747645378112793, 1.0508629083633423], "min" : [-3.103198528289795, -1, -0.8875650763511658], "name" : "POSITION"}, {"bufferView" : 2, "byteOffset" : 12, "componentType" : 5126, "count" : 114, "type" : "VEC3", "max" : [1.0000044107437134, 0.9927005171775818, 0.9991231560707092], "min" : [-1.0000044107437134, -0.9439297318458557, -0.9997988343238831], "name" : "NORMAL"}, {"bufferView" : 2, "byteOffset" : 24, "componentType" : 5126, "count" : 114, "type" : "VEC2", "max" : [0.875, 2], "min" : [0.125, 1], "name" : "TEXCOORD_0"}, {"bufferView" : 0, "byteOffset" : 696, "componentType" : 5123, "count" : 564, "type" : "SCALAR", "max" : [276], "min" : [0]}, {"bufferView" : 3, "byteOffset" : 0, "componentType" : 5126, "count" : 277, "type" : "VEC3", "max" : [0.6412680149078369, 0.6350409984588623, -2.9086239337921143], "min" : [0.466484010219574, 0.4927079975605011, -3.1137900352478027], "name" : "POSITION"}, {"bufferView" : 3, "byteOffset" : 12, "componentType" : 5126, "count" : 277, "type" : "VEC3", "max" : [0.9999805688858032, 1.0000044107437134, 0.9929031729698181], "min" : [-0.9999808073043823, -1.0000044107437134, -0.9929031729698181], "name" : "NORMAL"}, {"bufferView" : 3, "byteOffset" : 24, "componentType" : 5126, "count" : 277, "type" : "VEC2", "max" : [0.7821477055549622, 1.9999115467071533], "min" : [8.845053525874391E-05, 1.0000884532928467], "name" : "TEXCOORD_0"}, {"bufferView" : 0, "byteOffset" : 1824, "componentType" : 5123, "count" : 1062, "type" : "SCALAR", "max" : [185], "min" : [0]}, {"bufferView" : 4, "byteOffset" : 0, "componentType" : 5126, "count" : 186, "type" : "VEC3", "max" : [0.8285220265388489, 1.3511170148849487, 0.10896699875593185], "min" : [-0.7390959858894348, -0.2093379944562912, -3.8608689308166504], "name" : "POSITION"}, {"bufferView" : 4, "byteOffset" : 12, "componentType" : 5126, "count" : 186, "type" : "VEC3", "max" : [0.9942360520362854, 0.9930169582366943, 0.9995461106300354], "min" : [-0.9995988011360168, -0.9999415278434753, -0.9961854219436646], "name" : "NORMAL"}, {"bufferView" : 4, "byteOffset" : 24, "componentType" : 5126, "count" : 186, "type" : "VEC2", "max" : [0.5550910234451294, 2], "min" : [0, 1.0000749826431274], "name" : "TEXCOORD_0"}, {"bufferView" : 0, "byteOffset" : 3948, "componentType" : 5123, "count" : 882, "type" : "SCALAR", "max" : [205], "min" : [0]}, {"bufferView" : 5, "byteOffset" : 0, "componentType" : 5126, "count" : 206, "type" : "VEC3", "max" : [0.48564499616622925, 0.7722340226173401, -3.4499549865722656], "min" : [0.3569740056991577, 0.29324600100517273, -3.6242129802703857], "name" : "POSITION"}, {"bufferView" : 5, "byteOffset" : 12, "componentType" : 5126, "count" : 206, "type" : "VEC3", "max" : [0.9996036887168884, 0.9656566977500916, 0.9845688939094543], "min" : [-0.9994326233863831, -0.9211017489433289, -0.9799100756645203], "name" : "NORMAL"}, {"bufferView" : 5, "byteOffset" : 24, "componentType" : 5126, "count" : 206, "type" : "VEC2", "max" : [0.875, 2], "min" : [0.12475299835205078, 1], "name" : "TEXCOORD_0"}, {"bufferView" : 0, "byteOffset" : 5712, "componentType" : 5123, "count" : 144, "type" : "SCALAR", "max" : [38], "min" : [0]}, {"bufferView" : 6, "byteOffset" : 0, "componentType" : 5126, "count" : 39, "type" : "VEC3", "max" : [0.6274620294570923, 0.5718399882316589, -3.0336010456085205], "min" : [0.28518301248550415, 0.2295610010623932, -3.375880002975464], "name" : "POSITION"}, {"bufferView" : 6, "byteOffset" : 12, "componentType" : 5126, "count" : 39, "type" : "VEC3", "max" : [1.0000044107437134, 1.0000044107437134, 1.0000044107437134], "min" : [-1.0000044107437134, -1.0000044107437134, -1.0000044107437134], "name" : "NORMAL"}, {"bufferView" : 6, "byteOffset" : 24, "componentType" : 5126, "count" : 39, "type" : "VEC2", "max" : [0.42189523577690125, 1.9998700618743896], "min" : [0.00012985407374799252, 1.0001299381256104], "name" : "TEXCOORD_0"}, {"bufferView" : 0, "byteOffset" : 6000, "componentType" : 5123, "count" : 144, "type" : "SCALAR", "max" : [38], "min" : [0]}, {"bufferView" : 7, "byteOffset" : 0, "componentType" : 5126, "count" : 39, "type" : "VEC3", "max" : [0.5628979802131653, 0.8614500164985657, -3.0336010456085205], "min" : [0.22062000632286072, 0.5191709995269775, -3.375880002975464], "name" : "POSITION"}, {"bufferView" : 7, "byteOffset" : 12, "componentType" : 5126, "count" : 39, "type" : "VEC3", "max" : [1.0000044107437134, 1.0000044107437134, 1.0000044107437134], "min" : [-1.0000044107437134, -1.0000044107437134, -1.0000044107437134], "name" : "NORMAL"}, {"bufferView" : 7, "byteOffset" : 24, "componentType" : 5126, "count" : 39, "type" : "VEC2", "max" : [0.8439203500747681, 1.9998701810836792], "min" : [0.42215496301651, 1.0001299381256104], "name" : "TEXCOORD_0"}, {"bufferView" : 0, "byteOffset" : 6288, "componentType" : 5123, "count" : 1584, "type" : "SCALAR", "max" : [428], "min" : [0]}, {"bufferView" : 8, "byteOffset" : 0, "componentType" : 5126, "count" : 429, "type" : "VEC3", "max" : [0.7554759979248047, 1.301177978515625, -0.19839100539684296], "min" : [-0.6896179914474487, -0.04183100163936615, -3.406809091567993], "name" : "POSITION"}, {"bufferView" : 8, "byteOffset" : 12, "componentType" : 5126, "count" : 429, "type" : "VEC3", "max" : [1.0000044107437134, 1.0000044107437134, 1.0000044107437134], "min" : [-1.0000044107437134, -1.0000044107437134, -1.0000044107437134], "name" : "NORMAL"}, {"bufferView" : 8, "byteOffset" : 24, "componentType" : 5126, "count" : 429, "type" : "VEC2", "max" : [0.9996830224990845, 1.9996830224990845], "min" : [0.0003169999981764704, 1.0009499788284302], "name" : "TEXCOORD_0"}], "asset" : {"generator" : "Aspose.3D 24.6.0", "version" : "2.0"}, "buffers" : [{"uri" : "data:application/octet-stream;base64,", "byteLength" : 54100}], "bufferViews" : [{"buffer" : 0, "byteOffset" : 0, "byteLength" : 9456, "target" : 34963}, {"buffer" : 0, "byteOffset" : 9460, "byteLength" : 3328, "byteStride" : 32, "target" : 34962}, {"buffer" : 0, "byteOffset" : 12792, "byteLength" : 3648, "byteStride" : 32, "target" : 34962}, {"buffer" : 0, "byteOffset" : 16444, "byteLength" : 8864, "byteStride" : 32, "target" : 34962}, {"buffer" : 0, "byteOffset" : 25312, "byteLength" : 5952, "byteStride" : 32, "target" : 34962}, {"buffer" : 0, "byteOffset" : 31268, "byteLength" : 6592, "byteStride" : 32, "target" : 34962}, {"buffer" : 0, "byteOffset" : 37864, "byteLength" : 1248, "byteStride" : 32, "target" : 34962}, {"buffer" : 0, "byteOffset" : 39116, "byteLength" : 1248, "byteStride" : 32, "target" : 34962}, {"buffer" : 0, "byteOffset" : 40368, "byteLength" : 13728, "byteStride" : 32, "target" : 34962}], "images" : [{"uri" : "data:image/png;base64,"}, {"uri" : "data:image/png;base64,"}, {"uri" : "data:image/png;base64,"}, {"uri" : "data:image/png;base64,"}, {"uri" : "data:image/png;base64,"}, {"uri" : "data:image/png;base64,"}], "materials" : [{"name" : "Material", "pbrMetallicRoughness" : {"baseColorFactor" : [1, 1, 1, 1], "baseColorTexture" : {"index" : 0, "texCoord" : 0}, "metallicFactor" : 0, "roughnessFactor" : 0.5}, "emissiveFactor" : [0, 0, 0], "alphaMode" : "OPAQUE", "doubleSided" : true}, {"name" : "Material.005", "pbrMetallicRoughness" : {"baseColorFactor" : [1, 1, 1, 1], "baseColorTexture" : {"index" : 1, "texCoord" : 0}, "metallicFactor" : 0, "roughnessFactor" : 0.5}, "emissiveFactor" : [0, 0, 0], "alphaMode" : "OPAQUE", "doubleSided" : true}, {"name" : ".001", "pbrMetallicRoughness" : {"baseColorFactor" : [1, 1, 1, 1], "baseColorTexture" : {"index" : 2, "texCoord" : 0}, "metallicFactor" : 0, "roughnessFactor" : 0.5}, "emissiveFactor" : [0, 0, 0], "alphaMode" : "OPAQUE", "doubleSided" : true}, {"name" : "Material.006", "pbrMetallicRoughness" : {"baseColorFactor" : [1, 1, 1, 1], "baseColorTexture" : {"index" : 3, "texCoord" : 0}, "metallicFactor" : 0, "roughnessFactor" : 0.5}, "emissiveFactor" : [0, 0, 0], "alphaMode" : "OPAQUE", "doubleSided" : true}, {"name" : "Material.007", "pbrMetallicRoughness" : {"baseColorFactor" : [1, 1, 1, 1], "baseColorTexture" : {"index" : 4, "texCoord" : 0}, "metallicFactor" : 0, "roughnessFactor" : 0.5}, "emissiveFactor" : [0, 0, 0], "alphaMode" : "OPAQUE", "doubleSided" : true}, {"name" : "Material.008", "pbrMetallicRoughness" : {"baseColorFactor" : [1, 1, 1, 1], "metallicFactor" : 0, "roughnessFactor" : 0.5}, "emissiveFactor" : [0, 0, 0], "alphaMode" : "OPAQUE", "doubleSided" : true}, {"name" : "Material.009", "pbrMetallicRoughness" : {"baseColorFactor" : [1, 1, 1, 1], "baseColorTexture" : {"index" : 5, "texCoord" : 0}, "metallicFactor" : 0, "roughnessFactor" : 0.5}, "emissiveFactor" : [0, 0, 0], "alphaMode" : "OPAQUE", "doubleSided" : true}], "meshes" : [{"primitives" : [{"attributes" : {"POSITION" : 1, "NORMAL" : 2, "TEXCOORD_0" : 3}, "indices" : 0, "mode" : 4}]}, {"primitives" : [{"attributes" : {"POSITION" : 5, "NORMAL" : 6, "TEXCOORD_0" : 7}, "indices" : 4, "material" : 0, "mode" : 4}]}, {"primitives" : [{"attributes" : {"POSITION" : 9, "NORMAL" : 10, "TEXCOORD_0" : 11}, "indices" : 8, "material" : 1, "mode" : 4}]}, {"primitives" : [{"attributes" : {"POSITION" : 13, "NORMAL" : 14, "TEXCOORD_0" : 15}, "indices" : 12, "material" : 2, "mode" : 4}]}, {"primitives" : [{"attributes" : {"POSITION" : 17, "NORMAL" : 18, "TEXCOORD_0" : 19}, "indices" : 16, "material" : 3, "mode" : 4}]}, {"primitives" : [{"attributes" : {"POSITION" : 21, "NORMAL" : 22, "TEXCOORD_0" : 23}, "indices" : 20, "material" : 4, "mode" : 4}, {"attributes" : {"POSITION" : 25, "NORMAL" : 26, "TEXCOORD_0" : 27}, "indices" : 24, "material" : 5, "mode" : 4}]}, {"primitives" : [{"attributes" : {"POSITION" : 29, "NORMAL" : 30, "TEXCOORD_0" : 31}, "indices" : 28, "material" : 6, "mode" : 4}]}], "nodes" : [{"matrix" : [0.06771151721477509, 0, 0, 0, 0, 0.04076145589351654, 0, 0, 0, 0, 0.1480114459991455, 0, 0.5313088893890381, 3.0423238277435303, 0.3897552490234375, 1], "mesh" : 0, "name" : "   "}, {"matrix" : [0.06745117379037723, 0, 0.005932092904283023, 0, 0, 0.04076145589351654, 0, 0, -0.012967034089153142, 0, 0.1474423418523529, 0, 0.46173524856567383, 3.0481274127960205, 0.6870359182357788, 1], "mesh" : 1, "name" : "   "}, {"matrix" : [1, 0, 0, 0, 0, -1.3435885648505064E-07, 1.0000001343588565, 0, 0, -1.0000001343588565, -1.3435885648505064E-07, 0, 0, 0, 0, 1], "mesh" : 2, "name" : "1"}, {"matrix" : [1, 0, 0, 0, 0, -1.3435885648505064E-07, 1.0000001343588565, 0, 0, -1.0000001343588565, -1.3435885648505064E-07, 0, 0, 0, 0, 1], "mesh" : 3, "name" : ""}, {"matrix" : [1, 0, 0, 0, 0, -1.3435885648505064E-07, 1.0000001343588565, 0, 0, -1.0000001343588565, -1.3435885648505064E-07, 0, 0, 0, 0, 1], "mesh" : 4, "name" : ""}, {"matrix" : [1, 0, 0, 0, 0, -1.3435885648505064E-07, 1.0000001343588565, 0, 0, -1.0000001343588565, -1.3435885648505064E-07, 0, 0, 0, 0, 1], "mesh" : 5, "name" : ".001"}, {"matrix" : [1, 0, 0, 0, 0, -1.3435885648505064E-07, 1.0000001343588565, 0, 0, -1.0000001343588565, -1.3435885648505064E-07, 0, 0, 0, 0, 1], "mesh" : 6, "name" : ""}], "samplers" : [{"magFilter" : 9729, "minFilter" : 9987, "wrapS" : 10497, "wrapT" : 10497}, {"magFilter" : 9729, "minFilter" : 9987, "wrapS" : 10497, "wrapT" : 10497}, {"magFilter" : 9729, "minFilter" : 9987, "wrapS" : 10497, "wrapT" : 10497}, {"magFilter" : 9729, "minFilter" : 9987, "wrapS" : 10497, "wrapT" : 10497}, {"magFilter" : 9729, "minFilter" : 9987, "wrapS" : 10497, "wrapT" : 10497}, {"magFilter" : 9729, "minFilter" : 9987, "wrapS" : 10497, "wrapT" : 10497}], "scene" : 0, "scenes" : [{"nodes" : [0, 1, 2, 3, 4, 5, 6]}], "textures" : [{"sampler" : 0, "source" : 0, "name" : ""}, {"sampler" : 1, "source" : 1, "name" : ""}, {"sampler" : 2, "source" : 2, "name" : ""}, {"sampler" : 3, "source" : 3, "name" : ""}, {"sampler" : 4, "source" : 4, "name" : ""}, {"sampler" : 5, "source" : 5, "name" : ""}]}